<?xml version="1.0" encoding="UTF-8"?>
<svg width="260" height="145" xmlns="http://www.w3.org/2000/svg">
    <title>Тепловая карта</title>
    <style>
        .cell { stroke: #666; stroke-width: 0.3; }
        .micro-label { font-family: Arial, sans-serif; font-size: 7px; fill: #444; }
        .small-label { font-family: Arial, sans-serif; font-size: 8px; fill: #333; }
        .compact-title { font-family: Arial, sans-serif; font-size: 9px; font-weight: bold; fill: #222; }
        .tiny-value { font-family: Arial, sans-serif; font-size: 7px; fill: #fff; }
        .legend-label { font-family: Arial, sans-serif; font-size: 6px; fill: #333; }
    </style>
    
    <!-- Компактный заголовок с уменьшенным отступом -->
    <text x="130.0" y="10" text-anchor="middle" class="compact-title">Тепловая карта</text>
    
    <!-- Тепловая карта с уменьшенным отступом -->
    <g transform="translate(30, 20)">
        <rect x="0" y="0" width="10" height="10" fill="rgb(162, 162, 162)" class="cell"/>
        <rect x="10" y="0" width="10" height="10" fill="rgb(255, 255, 255)" class="cell"/>
        <rect x="20" y="0" width="10" height="10" fill="rgb(255, 255, 255)" class="cell"/>
        <rect x="30" y="0" width="10" height="10" fill="rgb(255, 255, 255)" class="cell"/>
        <rect x="40" y="0" width="10" height="10" fill="rgb(255, 255, 255)" class="cell"/>
        <rect x="50" y="0" width="10" height="10" fill="rgb(255, 255, 255)" class="cell"/>
        <rect x="60" y="0" width="10" height="10" fill="rgb(255, 255, 255)" class="cell"/>
        <rect x="70" y="0" width="10" height="10" fill="rgb(255, 255, 255)" class="cell"/>
        <rect x="80" y="0" width="10" height="10" fill="rgb(255, 255, 255)" class="cell"/>
        <rect x="90" y="0" width="10" height="10" fill="rgb(255, 255, 255)" class="cell"/>
        <rect x="100" y="0" width="10" height="10" fill="rgb(255, 255, 255)" class="cell"/>
        <rect x="110" y="0" width="10" height="10" fill="rgb(255, 255, 255)" class="cell"/>
        <rect x="120" y="0" width="10" height="10" fill="rgb(255, 255, 255)" class="cell"/>
        <rect x="130" y="0" width="10" height="10" fill="rgb(255, 255, 255)" class="cell"/>
        <rect x="140" y="0" width="10" height="10" fill="rgb(255, 255, 255)" class="cell"/>
        <rect x="150" y="0" width="10" height="10" fill="rgb(255, 255, 255)" class="cell"/>
        <rect x="160" y="0" width="10" height="10" fill="rgb(255, 255, 255)" class="cell"/>
        <rect x="170" y="0" width="10" height="10" fill="rgb(255, 255, 255)" class="cell"/>
        <rect x="180" y="0" width="10" height="10" fill="rgb(255, 255, 255)" class="cell"/>
        <rect x="190" y="0" width="10" height="10" fill="rgb(255, 255, 255)" class="cell"/>
        <rect x="0" y="10" width="10" height="10" fill="rgb(255, 255, 255)" class="cell"/>
        <rect x="10" y="10" width="10" height="10" fill="rgb(255, 255, 255)" class="cell"/>
        <rect x="20" y="10" width="10" height="10" fill="rgb(255, 255, 255)" class="cell"/>
        <rect x="30" y="10" width="10" height="10" fill="rgb(255, 255, 255)" class="cell"/>
        <rect x="40" y="10" width="10" height="10" fill="rgb(255, 255, 255)" class="cell"/>
        <rect x="50" y="10" width="10" height="10" fill="rgb(255, 255, 255)" class="cell"/>
        <rect x="60" y="10" width="10" height="10" fill="rgb(255, 255, 255)" class="cell"/>
        <rect x="70" y="10" width="10" height="10" fill="rgb(255, 255, 255)" class="cell"/>
        <rect x="80" y="10" width="10" height="10" fill="rgb(132, 132, 132)" class="cell"/>
        <rect x="90" y="10" width="10" height="10" fill="rgb(255, 255, 255)" class="cell"/>
        <rect x="100" y="10" width="10" height="10" fill="rgb(255, 255, 255)" class="cell"/>
        <rect x="110" y="10" width="10" height="10" fill="rgb(255, 255, 255)" class="cell"/>
        <rect x="120" y="10" width="10" height="10" fill="rgb(255, 255, 255)" class="cell"/>
        <rect x="130" y="10" width="10" height="10" fill="rgb(255, 255, 255)" class="cell"/>
        <rect x="140" y="10" width="10" height="10" fill="rgb(255, 255, 255)" class="cell"/>
        <rect x="150" y="10" width="10" height="10" fill="rgb(255, 255, 255)" class="cell"/>
        <rect x="160" y="10" width="10" height="10" fill="rgb(255, 255, 255)" class="cell"/>
        <rect x="170" y="10" width="10" height="10" fill="rgb(255, 255, 255)" class="cell"/>
        <rect x="180" y="10" width="10" height="10" fill="rgb(255, 255, 255)" class="cell"/>
        <rect x="190" y="10" width="10" height="10" fill="rgb(255, 255, 255)" class="cell"/>
        <rect x="0" y="20" width="10" height="10" fill="rgb(255, 255, 255)" class="cell"/>
        <rect x="10" y="20" width="10" height="10" fill="rgb(117, 117, 117)" class="cell"/>
        <rect x="20" y="20" width="10" height="10" fill="rgb(255, 255, 255)" class="cell"/>
        <rect x="30" y="20" width="10" height="10" fill="rgb(255, 255, 255)" class="cell"/>
        <rect x="40" y="20" width="10" height="10" fill="rgb(255, 255, 255)" class="cell"/>
        <rect x="50" y="20" width="10" height="10" fill="rgb(255, 255, 255)" class="cell"/>
        <rect x="60" y="20" width="10" height="10" fill="rgb(255, 255, 255)" class="cell"/>
        <rect x="70" y="20" width="10" height="10" fill="rgb(255, 255, 255)" class="cell"/>
        <rect x="80" y="20" width="10" height="10" fill="rgb(255, 255, 255)" class="cell"/>
        <rect x="90" y="20" width="10" height="10" fill="rgb(255, 255, 255)" class="cell"/>
        <rect x="100" y="20" width="10" height="10" fill="rgb(255, 255, 255)" class="cell"/>
        <rect x="110" y="20" width="10" height="10" fill="rgb(255, 255, 255)" class="cell"/>
        <rect x="120" y="20" width="10" height="10" fill="rgb(255, 255, 255)" class="cell"/>
        <rect x="130" y="20" width="10" height="10" fill="rgb(255, 255, 255)" class="cell"/>
        <rect x="140" y="20" width="10" height="10" fill="rgb(255, 255, 255)" class="cell"/>
        <rect x="150" y="20" width="10" height="10" fill="rgb(255, 255, 255)" class="cell"/>
        <rect x="160" y="20" width="10" height="10" fill="rgb(255, 255, 255)" class="cell"/>
        <rect x="170" y="20" width="10" height="10" fill="rgb(255, 255, 255)" class="cell"/>
        <rect x="180" y="20" width="10" height="10" fill="rgb(255, 255, 255)" class="cell"/>
        <rect x="190" y="20" width="10" height="10" fill="rgb(255, 255, 255)" class="cell"/>
        <rect x="0" y="30" width="10" height="10" fill="rgb(255, 255, 255)" class="cell"/>
        <rect x="10" y="30" width="10" height="10" fill="rgb(255, 255, 255)" class="cell"/>
        <rect x="20" y="30" width="10" height="10" fill="rgb(147, 147, 147)" class="cell"/>
        <rect x="30" y="30" width="10" height="10" fill="rgb(255, 255, 255)" class="cell"/>
        <rect x="40" y="30" width="10" height="10" fill="rgb(255, 255, 255)" class="cell"/>
        <rect x="50" y="30" width="10" height="10" fill="rgb(255, 255, 255)" class="cell"/>
        <rect x="60" y="30" width="10" height="10" fill="rgb(255, 255, 255)" class="cell"/>
        <rect x="70" y="30" width="10" height="10" fill="rgb(255, 255, 255)" class="cell"/>
        <rect x="80" y="30" width="10" height="10" fill="rgb(255, 255, 255)" class="cell"/>
        <rect x="90" y="30" width="10" height="10" fill="rgb(255, 255, 255)" class="cell"/>
        <rect x="100" y="30" width="10" height="10" fill="rgb(255, 255, 255)" class="cell"/>
        <rect x="110" y="30" width="10" height="10" fill="rgb(255, 255, 255)" class="cell"/>
        <rect x="120" y="30" width="10" height="10" fill="rgb(255, 255, 255)" class="cell"/>
        <rect x="130" y="30" width="10" height="10" fill="rgb(255, 255, 255)" class="cell"/>
        <rect x="140" y="30" width="10" height="10" fill="rgb(255, 255, 255)" class="cell"/>
        <rect x="150" y="30" width="10" height="10" fill="rgb(208, 208, 208)" class="cell"/>
        <rect x="160" y="30" width="10" height="10" fill="rgb(255, 255, 255)" class="cell"/>
        <rect x="170" y="30" width="10" height="10" fill="rgb(255, 255, 255)" class="cell"/>
        <rect x="180" y="30" width="10" height="10" fill="rgb(255, 255, 255)" class="cell"/>
        <rect x="190" y="30" width="10" height="10" fill="rgb(255, 255, 255)" class="cell"/>
        <rect x="0" y="40" width="10" height="10" fill="rgb(255, 255, 255)" class="cell"/>
        <rect x="10" y="40" width="10" height="10" fill="rgb(255, 255, 255)" class="cell"/>
        <rect x="20" y="40" width="10" height="10" fill="rgb(255, 255, 255)" class="cell"/>
        <rect x="30" y="40" width="10" height="10" fill="rgb(41, 41, 41)" class="cell"/>
        <rect x="40" y="40" width="10" height="10" fill="rgb(255, 255, 255)" class="cell"/>
        <rect x="50" y="40" width="10" height="10" fill="rgb(255, 255, 255)" class="cell"/>
        <rect x="60" y="40" width="10" height="10" fill="rgb(255, 255, 255)" class="cell"/>
        <rect x="70" y="40" width="10" height="10" fill="rgb(255, 255, 255)" class="cell"/>
        <rect x="80" y="40" width="10" height="10" fill="rgb(255, 255, 255)" class="cell"/>
        <rect x="90" y="40" width="10" height="10" fill="rgb(255, 255, 255)" class="cell"/>
        <rect x="100" y="40" width="10" height="10" fill="rgb(255, 255, 255)" class="cell"/>
        <rect x="110" y="40" width="10" height="10" fill="rgb(255, 255, 255)" class="cell"/>
        <rect x="120" y="40" width="10" height="10" fill="rgb(255, 255, 255)" class="cell"/>
        <rect x="130" y="40" width="10" height="10" fill="rgb(255, 255, 255)" class="cell"/>
        <rect x="140" y="40" width="10" height="10" fill="rgb(255, 255, 255)" class="cell"/>
        <rect x="150" y="40" width="10" height="10" fill="rgb(255, 255, 255)" class="cell"/>
        <rect x="160" y="40" width="10" height="10" fill="rgb(255, 255, 255)" class="cell"/>
        <rect x="170" y="40" width="10" height="10" fill="rgb(255, 255, 255)" class="cell"/>
        <rect x="180" y="40" width="10" height="10" fill="rgb(255, 255, 255)" class="cell"/>
        <rect x="190" y="40" width="10" height="10" fill="rgb(255, 255, 255)" class="cell"/>
        <rect x="0" y="50" width="10" height="10" fill="rgb(255, 255, 255)" class="cell"/>
        <rect x="10" y="50" width="10" height="10" fill="rgb(255, 255, 255)" class="cell"/>
        <rect x="20" y="50" width="10" height="10" fill="rgb(255, 255, 255)" class="cell"/>
        <rect x="30" y="50" width="10" height="10" fill="rgb(255, 255, 255)" class="cell"/>
        <rect x="40" y="50" width="10" height="10" fill="rgb(68, 68, 68)" class="cell"/>
        <rect x="50" y="50" width="10" height="10" fill="rgb(255, 255, 255)" class="cell"/>
        <rect x="60" y="50" width="10" height="10" fill="rgb(255, 255, 255)" class="cell"/>
        <rect x="70" y="50" width="10" height="10" fill="rgb(255, 255, 255)" class="cell"/>
        <rect x="80" y="50" width="10" height="10" fill="rgb(255, 255, 255)" class="cell"/>
        <rect x="90" y="50" width="10" height="10" fill="rgb(255, 255, 255)" class="cell"/>
        <rect x="100" y="50" width="10" height="10" fill="rgb(18, 18, 18)" class="cell"/>
        <rect x="110" y="50" width="10" height="10" fill="rgb(255, 255, 255)" class="cell"/>
        <rect x="120" y="50" width="10" height="10" fill="rgb(255, 255, 255)" class="cell"/>
        <rect x="130" y="50" width="10" height="10" fill="rgb(255, 255, 255)" class="cell"/>
        <rect x="140" y="50" width="10" height="10" fill="rgb(255, 255, 255)" class="cell"/>
        <rect x="150" y="50" width="10" height="10" fill="rgb(255, 255, 255)" class="cell"/>
        <rect x="160" y="50" width="10" height="10" fill="rgb(255, 255, 255)" class="cell"/>
        <rect x="170" y="50" width="10" height="10" fill="rgb(255, 255, 255)" class="cell"/>
        <rect x="180" y="50" width="10" height="10" fill="rgb(255, 255, 255)" class="cell"/>
        <rect x="190" y="50" width="10" height="10" fill="rgb(255, 255, 255)" class="cell"/>
        <rect x="0" y="60" width="10" height="10" fill="rgb(255, 255, 255)" class="cell"/>
        <rect x="10" y="60" width="10" height="10" fill="rgb(255, 255, 255)" class="cell"/>
        <rect x="20" y="60" width="10" height="10" fill="rgb(255, 255, 255)" class="cell"/>
        <rect x="30" y="60" width="10" height="10" fill="rgb(255, 255, 255)" class="cell"/>
        <rect x="40" y="60" width="10" height="10" fill="rgb(255, 255, 255)" class="cell"/>
        <rect x="50" y="60" width="10" height="10" fill="rgb(202, 202, 202)" class="cell"/>
        <rect x="60" y="60" width="10" height="10" fill="rgb(255, 255, 255)" class="cell"/>
        <rect x="70" y="60" width="10" height="10" fill="rgb(255, 255, 255)" class="cell"/>
        <rect x="80" y="60" width="10" height="10" fill="rgb(255, 255, 255)" class="cell"/>
        <rect x="90" y="60" width="10" height="10" fill="rgb(255, 255, 255)" class="cell"/>
        <rect x="100" y="60" width="10" height="10" fill="rgb(255, 255, 255)" class="cell"/>
        <rect x="110" y="60" width="10" height="10" fill="rgb(255, 255, 255)" class="cell"/>
        <rect x="120" y="60" width="10" height="10" fill="rgb(255, 255, 255)" class="cell"/>
        <rect x="130" y="60" width="10" height="10" fill="rgb(255, 255, 255)" class="cell"/>
        <rect x="140" y="60" width="10" height="10" fill="rgb(255, 255, 255)" class="cell"/>
        <rect x="150" y="60" width="10" height="10" fill="rgb(255, 255, 255)" class="cell"/>
        <rect x="160" y="60" width="10" height="10" fill="rgb(255, 255, 255)" class="cell"/>
        <rect x="170" y="60" width="10" height="10" fill="rgb(255, 255, 255)" class="cell"/>
        <rect x="180" y="60" width="10" height="10" fill="rgb(255, 255, 255)" class="cell"/>
        <rect x="190" y="60" width="10" height="10" fill="rgb(255, 255, 255)" class="cell"/>
        <rect x="0" y="70" width="10" height="10" fill="rgb(255, 255, 255)" class="cell"/>
        <rect x="10" y="70" width="10" height="10" fill="rgb(255, 255, 255)" class="cell"/>
        <rect x="20" y="70" width="10" height="10" fill="rgb(255, 255, 255)" class="cell"/>
        <rect x="30" y="70" width="10" height="10" fill="rgb(255, 255, 255)" class="cell"/>
        <rect x="40" y="70" width="10" height="10" fill="rgb(255, 255, 255)" class="cell"/>
        <rect x="50" y="70" width="10" height="10" fill="rgb(255, 255, 255)" class="cell"/>
        <rect x="60" y="70" width="10" height="10" fill="rgb(172, 172, 172)" class="cell"/>
        <rect x="70" y="70" width="10" height="10" fill="rgb(255, 255, 255)" class="cell"/>
        <rect x="80" y="70" width="10" height="10" fill="rgb(255, 255, 255)" class="cell"/>
        <rect x="90" y="70" width="10" height="10" fill="rgb(255, 255, 255)" class="cell"/>
        <rect x="100" y="70" width="10" height="10" fill="rgb(255, 255, 255)" class="cell"/>
        <rect x="110" y="70" width="10" height="10" fill="rgb(255, 255, 255)" class="cell"/>
        <rect x="120" y="70" width="10" height="10" fill="rgb(255, 255, 255)" class="cell"/>
        <rect x="130" y="70" width="10" height="10" fill="rgb(255, 255, 255)" class="cell"/>
        <rect x="140" y="70" width="10" height="10" fill="rgb(255, 255, 255)" class="cell"/>
        <rect x="150" y="70" width="10" height="10" fill="rgb(255, 255, 255)" class="cell"/>
        <rect x="160" y="70" width="10" height="10" fill="rgb(255, 255, 255)" class="cell"/>
        <rect x="170" y="70" width="10" height="10" fill="rgb(255, 255, 255)" class="cell"/>
        <rect x="180" y="70" width="10" height="10" fill="rgb(78, 78, 78)" class="cell"/>
        <rect x="190" y="70" width="10" height="10" fill="rgb(255, 255, 255)" class="cell"/>
        <rect x="0" y="80" width="10" height="10" fill="rgb(255, 255, 255)" class="cell"/>
        <rect x="10" y="80" width="10" height="10" fill="rgb(255, 255, 255)" class="cell"/>
        <rect x="20" y="80" width="10" height="10" fill="rgb(255, 255, 255)" class="cell"/>
        <rect x="30" y="80" width="10" height="10" fill="rgb(255, 255, 255)" class="cell"/>
        <rect x="40" y="80" width="10" height="10" fill="rgb(255, 255, 255)" class="cell"/>
        <rect x="50" y="80" width="10" height="10" fill="rgb(255, 255, 255)" class="cell"/>
        <rect x="60" y="80" width="10" height="10" fill="rgb(255, 255, 255)" class="cell"/>
        <rect x="70" y="80" width="10" height="10" fill="rgb(90, 90, 90)" class="cell"/>
        <rect x="80" y="80" width="10" height="10" fill="rgb(255, 255, 255)" class="cell"/>
        <rect x="90" y="80" width="10" height="10" fill="rgb(255, 255, 255)" class="cell"/>
        <rect x="100" y="80" width="10" height="10" fill="rgb(255, 255, 255)" class="cell"/>
        <rect x="110" y="80" width="10" height="10" fill="rgb(255, 255, 255)" class="cell"/>
        <rect x="120" y="80" width="10" height="10" fill="rgb(255, 255, 255)" class="cell"/>
        <rect x="130" y="80" width="10" height="10" fill="rgb(255, 255, 255)" class="cell"/>
        <rect x="140" y="80" width="10" height="10" fill="rgb(255, 255, 255)" class="cell"/>
        <rect x="150" y="80" width="10" height="10" fill="rgb(255, 255, 255)" class="cell"/>
        <rect x="160" y="80" width="10" height="10" fill="rgb(255, 255, 255)" class="cell"/>
        <rect x="170" y="80" width="10" height="10" fill="rgb(255, 255, 255)" class="cell"/>
        <rect x="180" y="80" width="10" height="10" fill="rgb(255, 255, 255)" class="cell"/>
        <rect x="190" y="80" width="10" height="10" fill="rgb(255, 255, 255)" class="cell"/>
        <rect x="0" y="90" width="10" height="10" fill="rgb(255, 255, 255)" class="cell"/>
        <rect x="10" y="90" width="10" height="10" fill="rgb(255, 255, 255)" class="cell"/>
        <rect x="20" y="90" width="10" height="10" fill="rgb(255, 255, 255)" class="cell"/>
        <rect x="30" y="90" width="10" height="10" fill="rgb(255, 255, 255)" class="cell"/>
        <rect x="40" y="90" width="10" height="10" fill="rgb(255, 255, 255)" class="cell"/>
        <rect x="50" y="90" width="10" height="10" fill="rgb(255, 255, 255)" class="cell"/>
        <rect x="60" y="90" width="10" height="10" fill="rgb(255, 255, 255)" class="cell"/>
        <rect x="70" y="90" width="10" height="10" fill="rgb(255, 255, 255)" class="cell"/>
        <rect x="80" y="90" width="10" height="10" fill="rgb(255, 255, 255)" class="cell"/>
        <rect x="90" y="90" width="10" height="10" fill="rgb(0, 0, 0)" class="cell"/>
        <rect x="100" y="90" width="10" height="10" fill="rgb(255, 255, 255)" class="cell"/>
        <rect x="110" y="90" width="10" height="10" fill="rgb(255, 255, 255)" class="cell"/>
        <rect x="120" y="90" width="10" height="10" fill="rgb(255, 255, 255)" class="cell"/>
        <rect x="130" y="90" width="10" height="10" fill="rgb(255, 255, 255)" class="cell"/>
        <rect x="140" y="90" width="10" height="10" fill="rgb(255, 255, 255)" class="cell"/>
        <rect x="150" y="90" width="10" height="10" fill="rgb(255, 255, 255)" class="cell"/>
        <rect x="160" y="90" width="10" height="10" fill="rgb(255, 255, 255)" class="cell"/>
        <rect x="170" y="90" width="10" height="10" fill="rgb(255, 255, 255)" class="cell"/>
        <rect x="180" y="90" width="10" height="10" fill="rgb(255, 255, 255)" class="cell"/>
        <rect x="190" y="90" width="10" height="10" fill="rgb(255, 255, 255)" class="cell"/>
    </g>

    <!-- КОМПАКТНАЯ ЛЕГЕНДА (от белого к черному) -->
    <g transform="translate(30, 130)">
        <!-- Градиентная полоса с рамкой -->
        <defs>
            <linearGradient id="bwGradient" x1="0%" y1="0%" x2="100%" y2="0%">
                <stop offset="0%" style="stop-color:rgb(255,255,255);stop-opacity:1" />
                <stop offset="100%" style="stop-color:rgb(0,0,0);stop-opacity:1" />
            </linearGradient>
        </defs>
        
        <!-- Основная градиентная полоса -->
        <rect x="0" y="0" width="75" height="4" fill="url(#bwGradient)" stroke="#666" stroke-width="0.2"/>
        
        <!-- Деления и подписи -->
        <line x1="0" y1="4" x2="0" y2="6" stroke="#666" stroke-width="0.3"/>
        <line x1="37.5" y1="4" x2="37.5" y2="7" stroke="#666" stroke-width="0.3"/>
        <line x1="75" y1="4" x2="75" y2="6" stroke="#666" stroke-width="0.3"/>
        
        <!-- Подписи значений с увеличенными отступами -->
        <text x="0" y="15" text-anchor="start" class="legend-label">0.0</text>
        <text x="37.5" y="15" text-anchor="middle" class="legend-label">7.6</text>
        <text x="75" y="15" text-anchor="end" class="legend-label">15.2</text>
    </g>
</svg>