<?xml version="1.0" encoding="UTF-8"?>
<svg width="800" height="600" xmlns="http://www.w3.org/2000/svg">
<rect width="100%" height="100%" fill="white"/>
<line x1="100" y1="100" x2="200" y2="150" style="fill:#ff0000;stroke:#ff0000;stroke-width:2.000000;" /><polygon points="200.000000,150.000000 190.017965,150.599153 194.490101,141.654881" style="fill:#ff0000;stroke:#ff0000;stroke-width:2.000000;" />
<line x1="100" y1="200" x2="250" y2="200" style="fill:#0000ff;stroke:#0000ff;stroke-width:3.000000;" /><polygon points="250.000000,200.000000 237.009619,207.500000 237.009619,192.500000" style="fill:#0000ff;stroke:#0000ff;stroke-width:3.000000;" />
<line x1="100" y1="300" x2="200" y2="250" style="fill:rgba(0,255,0,0.501961);stroke:#00ff00;stroke-width:1.500000;" /><polygon points="200.000000,250.000000 196.205267,261.384200 188.615800,246.205267" style="fill:rgba(0,255,0,0.501961);stroke:#00ff00;stroke-width:1.500000;" />
<line x1="100" y1="400" x2="250" y2="300" style="fill:#000000;stroke:#000000;stroke-width:2.000000;" /><polygon points="250.000000,300.000000 245.567734,308.964096 240.020732,300.643593" style="fill:#ff0000;stroke:#000000;stroke-width:1.000000;" />
<line x1="350" y1="100" x2="334" y2="88" style="fill:#800080;stroke:#800080;stroke-width:1.000000;" /><polygon points="334.000000,88.000000 338.964102,88.598076 335.964102,92.598076" style="fill:#800080;stroke:#800080;stroke-width:1.000000;" />
<line x1="350" y1="130" x2="332.85" y2="119.71" style="fill:#800080;stroke:#800080;stroke-width:1.000000;" /><polygon points="332.850141,119.710085 337.849434,119.794185 335.276955,124.081649" style="fill:#800080;stroke:#800080;stroke-width:1.000000;" />
<line x1="350" y1="160" x2="331.762" y2="151.793" style="fill:#800080;stroke:#800080;stroke-width:1.000000;" /><polygon points="331.761570,151.792706 336.736218,151.289834 334.684394,155.849441" style="fill:#800080;stroke:#800080;stroke-width:1.000000;" />
<line x1="350" y1="190" x2="330.843" y2="184.253" style="fill:#800080;stroke:#800080;stroke-width:1.000000;" /><polygon points="330.843474,184.253042 335.709353,183.102729 334.272614,187.891861" style="fill:#800080;stroke:#800080;stroke-width:1.000000;" />
<line x1="350" y1="220" x2="330.221" y2="217.033" style="fill:#800080;stroke:#800080;stroke-width:1.000000;" /><polygon points="330.221273,217.033191 334.874344,215.203183 334.132642,220.147865" style="fill:#800080;stroke:#800080;stroke-width:1.000000;" />
<line x1="350" y1="250" x2="330" y2="250" style="fill:#800080;stroke:#800080;stroke-width:1.000000;" /><polygon points="330.000000,250.000000 334.330127,247.500000 334.330127,252.500000" style="fill:#800080;stroke:#800080;stroke-width:1.000000;" />
<line x1="350" y1="280" x2="330.221" y2="282.967" style="fill:#800080;stroke:#800080;stroke-width:1.000000;" /><polygon points="330.221273,282.966809 334.132642,279.852135 334.874344,284.796817" style="fill:#800080;stroke:#800080;stroke-width:1.000000;" />
<line x1="350" y1="310" x2="330.843" y2="315.747" style="fill:#800080;stroke:#800080;stroke-width:1.000000;" /><polygon points="330.843474,315.746958 334.272614,312.108139 335.709353,316.897271" style="fill:#800080;stroke:#800080;stroke-width:1.000000;" />
<line x1="350" y1="340" x2="331.762" y2="348.207" style="fill:#800080;stroke:#800080;stroke-width:1.000000;" /><polygon points="331.761570,348.207294 334.684394,344.150559 336.736218,348.710166" style="fill:#800080;stroke:#800080;stroke-width:1.000000;" />
<line x1="350" y1="370" x2="332.85" y2="380.29" style="fill:#800080;stroke:#800080;stroke-width:1.000000;" /><polygon points="332.850141,380.289915 335.276955,375.918351 337.849434,380.205815" style="fill:#800080;stroke:#800080;stroke-width:1.000000;" />
<line x1="380" y1="100" x2="365.003" y2="86.7676" style="fill:#800080;stroke:#800080;stroke-width:1.000000;" /><polygon points="365.003243,86.767567 369.904190,87.757878 366.596082,91.507068" style="fill:#800080;stroke:#800080;stroke-width:1.000000;" />
<line x1="380" y1="130" x2="363.661" y2="118.466" style="fill:#800080;stroke:#800080;stroke-width:1.000000;" /><polygon points="363.660643,118.466336 368.639925,118.921028 365.756509,123.005867" style="fill:#800080;stroke:#800080;stroke-width:1.000000;" />
<line x1="380" y1="160" x2="362.324" y2="150.642" style="fill:#800080;stroke:#800080;stroke-width:1.000000;" /><polygon points="362.324242,150.642246 367.320875,150.458789 364.981436,154.877729" style="fill:#800080;stroke:#800080;stroke-width:1.000000;" />
<line x1="380" y1="190" x2="361.14" y2="183.344" style="fill:#800080;stroke:#800080;stroke-width:1.000000;" /><polygon points="361.140193,183.343598 366.055512,182.427275 364.391411,187.142227" style="fill:#800080;stroke:#800080;stroke-width:1.000000;" />
<line x1="380" y1="220" x2="360.304" y2="216.524" style="fill:#800080;stroke:#800080;stroke-width:1.000000;" /><polygon points="360.304329,216.524293 365.003030,214.814847 364.134103,219.738765" style="fill:#800080;stroke:#800080;stroke-width:1.000000;" />
<line x1="380" y1="250" x2="360" y2="250" style="fill:#800080;stroke:#800080;stroke-width:1.000000;" /><polygon points="360.000000,250.000000 364.330127,247.500000 364.330127,252.500000" style="fill:#800080;stroke:#800080;stroke-width:1.000000;" />
<line x1="380" y1="280" x2="360.304" y2="283.476" style="fill:#800080;stroke:#800080;stroke-width:1.000000;" /><polygon points="360.304329,283.475707 364.134103,280.261235 365.003030,285.185153" style="fill:#800080;stroke:#800080;stroke-width:1.000000;" />
<line x1="380" y1="310" x2="361.14" y2="316.656" style="fill:#800080;stroke:#800080;stroke-width:1.000000;" /><polygon points="361.140193,316.656402 364.391411,312.857773 366.055512,317.572725" style="fill:#800080;stroke:#800080;stroke-width:1.000000;" />
<line x1="380" y1="340" x2="362.324" y2="349.358" style="fill:#800080;stroke:#800080;stroke-width:1.000000;" /><polygon points="362.324242,349.357754 364.981436,345.122271 367.320875,349.541211" style="fill:#800080;stroke:#800080;stroke-width:1.000000;" />
<line x1="380" y1="370" x2="363.661" y2="381.534" style="fill:#800080;stroke:#800080;stroke-width:1.000000;" /><polygon points="363.660643,381.533664 365.756509,376.994133 368.639925,381.078972" style="fill:#800080;stroke:#800080;stroke-width:1.000000;" />
<line x1="410" y1="100" x2="396.354" y2="85.3789" style="fill:#800080;stroke:#800080;stroke-width:1.000000;" /><polygon points="396.353635,85.378895 401.135798,86.838661 397.480522,90.250252" style="fill:#800080;stroke:#800080;stroke-width:1.000000;" />
<line x1="410" y1="130" x2="394.815" y2="116.984" style="fill:#800080;stroke:#800080;stroke-width:1.000000;" /><polygon points="394.814868,116.984173 399.729524,117.904040 396.475567,121.700323" style="fill:#800080;stroke:#800080;stroke-width:1.000000;" />
<line x1="410" y1="160" x2="393.176" y2="149.185" style="fill:#800080;stroke:#800080;stroke-width:1.000000;" /><polygon points="393.176430,149.184848 398.170734,149.423451 395.466946,153.629343" style="fill:#800080;stroke:#800080;stroke-width:1.000000;" />
<line x1="410" y1="190" x2="391.617" y2="182.122" style="fill:#800080;stroke:#800080;stroke-width:1.000000;" /><polygon points="391.617099,182.121614 396.581912,181.529472 394.612316,186.125197" style="fill:#800080;stroke:#800080;stroke-width:1.000000;" />
<line x1="410" y1="220" x2="390.444" y2="215.809" style="fill:#800080;stroke:#800080;stroke-width:1.000000;" /><polygon points="390.443952,215.809418 395.201783,214.272200 394.154138,219.161212" style="fill:#800080;stroke:#800080;stroke-width:1.000000;" />
<line x1="410" y1="250" x2="390" y2="250" style="fill:#800080;stroke:#800080;stroke-width:1.000000;" /><polygon points="390.000000,250.000000 394.330127,247.500000 394.330127,252.500000" style="fill:#800080;stroke:#800080;stroke-width:1.000000;" />
<line x1="410" y1="280" x2="390.444" y2="284.191" style="fill:#800080;stroke:#800080;stroke-width:1.000000;" /><polygon points="390.443952,284.190582 394.154138,280.838788 395.201783,285.727800" style="fill:#800080;stroke:#800080;stroke-width:1.000000;" />
<line x1="410" y1="310" x2="391.617" y2="317.878" style="fill:#800080;stroke:#800080;stroke-width:1.000000;" /><polygon points="391.617099,317.878386 394.612316,313.874803 396.581912,318.470528" style="fill:#800080;stroke:#800080;stroke-width:1.000000;" />
<line x1="410" y1="340" x2="393.176" y2="350.815" style="fill:#800080;stroke:#800080;stroke-width:1.000000;" /><polygon points="393.176430,350.815152 395.466946,346.370657 398.170734,350.576549" style="fill:#800080;stroke:#800080;stroke-width:1.000000;" />
<line x1="410" y1="370" x2="394.815" y2="383.016" style="fill:#800080;stroke:#800080;stroke-width:1.000000;" /><polygon points="394.814868,383.015827 396.475567,378.299677 399.729524,382.095960" style="fill:#800080;stroke:#800080;stroke-width:1.000000;" />
<line x1="440" y1="100" x2="428.173" y2="83.8719" style="fill:#800080;stroke:#800080;stroke-width:1.000000;" /><polygon points="428.172727,83.871900 432.749419,85.885327 428.717394,88.842145" style="fill:#800080;stroke:#800080;stroke-width:1.000000;" />
<line x1="440" y1="130" x2="426.486" y2="115.257" style="fill:#800080;stroke:#800080;stroke-width:1.000000;" /><polygon points="426.485507,115.256917 431.254366,116.759577 427.568596,120.138200" style="fill:#800080;stroke:#800080;stroke-width:1.000000;" />
<line x1="440" y1="160" x2="424.521" y2="147.335" style="fill:#800080;stroke:#800080;stroke-width:1.000000;" /><polygon points="424.520854,147.335244 429.455282,148.142351 426.289093,152.012138" style="fill:#800080;stroke:#800080;stroke-width:1.000000;" />
<line x1="440" y1="190" x2="422.442" y2="180.423" style="fill:#800080;stroke:#800080;stroke-width:1.000000;" /><polygon points="422.442089,180.422957 427.440618,180.301709 425.046358,184.691187" style="fill:#800080;stroke:#800080;stroke-width:1.000000;" />
<line x1="440" y1="220" x2="420.705" y2="214.738" style="fill:#800080;stroke:#800080;stroke-width:1.000000;" /><polygon points="420.704724,214.737652 425.540067,213.465074 424.224480,218.288893" style="fill:#800080;stroke:#800080;stroke-width:1.000000;" />
<line x1="440" y1="250" x2="420" y2="250" style="fill:#800080;stroke:#800080;stroke-width:1.000000;" /><polygon points="420.000000,250.000000 424.330127,247.500000 424.330127,252.500000" style="fill:#800080;stroke:#800080;stroke-width:1.000000;" />
<line x1="440" y1="280" x2="420.705" y2="285.262" style="fill:#800080;stroke:#800080;stroke-width:1.000000;" /><polygon points="420.704724,285.262348 424.224480,281.711107 425.540067,286.534926" style="fill:#800080;stroke:#800080;stroke-width:1.000000;" />
<line x1="440" y1="310" x2="422.442" y2="319.577" style="fill:#800080;stroke:#800080;stroke-width:1.000000;" /><polygon points="422.442089,319.577043 425.046358,315.308813 427.440618,319.698291" style="fill:#800080;stroke:#800080;stroke-width:1.000000;" />
<line x1="440" y1="340" x2="424.521" y2="352.665" style="fill:#800080;stroke:#800080;stroke-width:1.000000;" /><polygon points="424.520854,352.664756 426.289093,347.987862 429.455282,351.857649" style="fill:#800080;stroke:#800080;stroke-width:1.000000;" />
<line x1="440" y1="370" x2="426.486" y2="384.743" style="fill:#800080;stroke:#800080;stroke-width:1.000000;" /><polygon points="426.485507,384.743083 427.568596,379.861800 431.254366,383.240423" style="fill:#800080;stroke:#800080;stroke-width:1.000000;" />
<line x1="470" y1="100" x2="460.588" y2="82.3529" style="fill:#800080;stroke:#800080;stroke-width:1.000000;" /><polygon points="460.588235,82.352941 464.831824,84.997171 460.420060,87.350112" style="fill:#800080;stroke:#800080;stroke-width:1.000000;" />
<line x1="470" y1="130" x2="458.906" y2="113.359" style="fill:#800080;stroke:#800080;stroke-width:1.000000;" /><polygon points="458.905996,113.358994 463.388044,115.575127 459.227793,118.348628" style="fill:#800080;stroke:#800080;stroke-width:1.000000;" />
<line x1="470" y1="160" x2="456.713" y2="145.052" style="fill:#800080;stroke:#800080;stroke-width:1.000000;" /><polygon points="456.712723,145.051814 461.458026,146.627281 457.720980,149.949101" style="fill:#800080;stroke:#800080;stroke-width:1.000000;" />
<line x1="470" y1="190" x2="454" y2="178" style="fill:#800080;stroke:#800080;stroke-width:1.000000;" /><polygon points="454.000000,178.000000 458.964102,178.598076 455.964102,182.598076" style="fill:#800080;stroke:#800080;stroke-width:1.000000;" />
<line x1="470" y1="220" x2="451.273" y2="212.978" style="fill:#800080;stroke:#800080;stroke-width:1.000000;" /><polygon points="451.273416,212.977531 456.205649,212.157117 454.450032,216.838763" style="fill:#800080;stroke:#800080;stroke-width:1.000000;" />
<line x1="470" y1="250" x2="450" y2="250" style="fill:#800080;stroke:#800080;stroke-width:1.000000;" /><polygon points="450.000000,250.000000 454.330127,247.500000 454.330127,252.500000" style="fill:#800080;stroke:#800080;stroke-width:1.000000;" />
<line x1="470" y1="280" x2="451.273" y2="287.022" style="fill:#800080;stroke:#800080;stroke-width:1.000000;" /><polygon points="451.273416,287.022469 454.450032,283.161237 456.205649,287.842883" style="fill:#800080;stroke:#800080;stroke-width:1.000000;" />
<line x1="470" y1="310" x2="454" y2="322" style="fill:#800080;stroke:#800080;stroke-width:1.000000;" /><polygon points="454.000000,322.000000 455.964102,317.401924 458.964102,321.401924" style="fill:#800080;stroke:#800080;stroke-width:1.000000;" />
<line x1="470" y1="340" x2="456.713" y2="354.948" style="fill:#800080;stroke:#800080;stroke-width:1.000000;" /><polygon points="456.712723,354.948186 457.720980,350.050899 461.458026,353.372719" style="fill:#800080;stroke:#800080;stroke-width:1.000000;" />
<line x1="470" y1="370" x2="458.906" y2="386.641" style="fill:#800080;stroke:#800080;stroke-width:1.000000;" /><polygon points="458.905996,386.641006 459.227793,381.651372 463.388044,384.424873" style="fill:#800080;stroke:#800080;stroke-width:1.000000;" />
<line x1="500" y1="100" x2="493.675" y2="81.0263" style="fill:#800080;stroke:#800080;stroke-width:1.000000;" /><polygon points="493.675445,81.026334 497.416459,84.343684 492.673043,85.924823" style="fill:#800080;stroke:#800080;stroke-width:1.000000;" />
<line x1="500" y1="130" x2="492.308" y2="111.538" style="fill:#800080;stroke:#800080;stroke-width:1.000000;" /><polygon points="492.307692,111.538462 496.280818,114.573963 491.665433,116.497040" style="fill:#800080;stroke:#800080;stroke-width:1.000000;" />
<line x1="500" y1="160" x2="490.287" y2="142.517" style="fill:#800080;stroke:#800080;stroke-width:1.000000;" /><polygon points="490.287141,142.516854 494.575430,145.087959 490.204644,147.516174" style="fill:#800080;stroke:#800080;stroke-width:1.000000;" />
<line x1="500" y1="190" x2="487.196" y2="174.636" style="fill:#800080;stroke:#800080;stroke-width:1.000000;" /><polygon points="487.196312,174.635574 491.888945,176.361609 488.047839,179.562531" style="fill:#800080;stroke:#800080;stroke-width:1.000000;" />
<line x1="500" y1="220" x2="482.85" y2="209.71" style="fill:#800080;stroke:#800080;stroke-width:1.000000;" /><polygon points="482.850141,209.710085 487.849434,209.794185 485.276955,214.081649" style="fill:#800080;stroke:#800080;stroke-width:1.000000;" />
<line x1="500" y1="250" x2="480" y2="250" style="fill:#800080;stroke:#800080;stroke-width:1.000000;" /><polygon points="480.000000,250.000000 484.330127,247.500000 484.330127,252.500000" style="fill:#800080;stroke:#800080;stroke-width:1.000000;" />
<line x1="500" y1="280" x2="482.85" y2="290.29" style="fill:#800080;stroke:#800080;stroke-width:1.000000;" /><polygon points="482.850141,290.289915 485.276955,285.918351 487.849434,290.205815" style="fill:#800080;stroke:#800080;stroke-width:1.000000;" />
<line x1="500" y1="310" x2="487.196" y2="325.364" style="fill:#800080;stroke:#800080;stroke-width:1.000000;" /><polygon points="487.196312,325.364426 488.047839,320.437469 491.888945,323.638391" style="fill:#800080;stroke:#800080;stroke-width:1.000000;" />
<line x1="500" y1="340" x2="490.287" y2="357.483" style="fill:#800080;stroke:#800080;stroke-width:1.000000;" /><polygon points="490.287141,357.483146 490.204644,352.483826 494.575430,354.912041" style="fill:#800080;stroke:#800080;stroke-width:1.000000;" />
<line x1="500" y1="370" x2="492.308" y2="388.462" style="fill:#800080;stroke:#800080;stroke-width:1.000000;" /><polygon points="492.307692,388.461538 491.665433,383.502960 496.280818,385.426037" style="fill:#800080;stroke:#800080;stroke-width:1.000000;" />
<line x1="530" y1="100" x2="527.357" y2="80.1754" style="fill:#800080;stroke:#800080;stroke-width:1.000000;" /><polygon points="527.356726,80.175442 530.407081,84.137175 525.450942,84.797994" style="fill:#800080;stroke:#800080;stroke-width:1.000000;" />
<line x1="530" y1="130" x2="526.712" y2="110.272" style="fill:#800080;stroke:#800080;stroke-width:1.000000;" /><polygon points="526.712020,110.272122 529.889874,114.132335 524.957904,114.954330" style="fill:#800080;stroke:#800080;stroke-width:1.000000;" />
<line x1="530" y1="160" x2="525.661" y2="140.476" style="fill:#800080;stroke:#800080;stroke-width:1.000000;" /><polygon points="525.661391,140.476259 529.041195,144.160947 524.160260,145.245599" style="fill:#800080;stroke:#800080;stroke-width:1.000000;" />
<line x1="530" y1="190" x2="523.675" y2="171.026" style="fill:#800080;stroke:#800080;stroke-width:1.000000;" /><polygon points="523.675445,171.026334 527.416459,174.343684 522.673043,175.924823" style="fill:#800080;stroke:#800080;stroke-width:1.000000;" />
<line x1="530" y1="220" x2="518.906" y2="203.359" style="fill:#800080;stroke:#800080;stroke-width:1.000000;" /><polygon points="518.905996,203.358994 523.388044,205.575127 519.227793,208.348628" style="fill:#800080;stroke:#800080;stroke-width:1.000000;" />
<line x1="530" y1="250" x2="510" y2="250" style="fill:#800080;stroke:#800080;stroke-width:1.000000;" /><polygon points="510.000000,250.000000 514.330127,247.500000 514.330127,252.500000" style="fill:#800080;stroke:#800080;stroke-width:1.000000;" />
<line x1="530" y1="280" x2="518.906" y2="296.641" style="fill:#800080;stroke:#800080;stroke-width:1.000000;" /><polygon points="518.905996,296.641006 519.227793,291.651372 523.388044,294.424873" style="fill:#800080;stroke:#800080;stroke-width:1.000000;" />
<line x1="530" y1="310" x2="523.675" y2="328.974" style="fill:#800080;stroke:#800080;stroke-width:1.000000;" /><polygon points="523.675445,328.973666 522.673043,324.075177 527.416459,325.656316" style="fill:#800080;stroke:#800080;stroke-width:1.000000;" />
<line x1="530" y1="340" x2="525.661" y2="359.524" style="fill:#800080;stroke:#800080;stroke-width:1.000000;" /><polygon points="525.661391,359.523741 524.160260,354.754401 529.041195,355.839053" style="fill:#800080;stroke:#800080;stroke-width:1.000000;" />
<line x1="530" y1="370" x2="526.712" y2="389.728" style="fill:#800080;stroke:#800080;stroke-width:1.000000;" /><polygon points="526.712020,389.727878 524.957904,385.045670 529.889874,385.867665" style="fill:#800080;stroke:#800080;stroke-width:1.000000;" />
<line x1="560" y1="100" x2="561.33" y2="80.0443" style="fill:#800080;stroke:#800080;stroke-width:1.000000;" /><polygon points="561.330380,80.044297 563.536807,84.531131 558.547882,84.198536" style="fill:#800080;stroke:#800080;stroke-width:1.000000;" />
<line x1="560" y1="130" x2="561.661" y2="110.069" style="fill:#800080;stroke:#800080;stroke-width:1.000000;" /><polygon points="561.660910,110.069085 563.792677,114.591868 558.809948,114.176641" style="fill:#800080;stroke:#800080;stroke-width:1.000000;" />
<line x1="560" y1="160" x2="562.209" y2="140.122" style="fill:#800080;stroke:#800080;stroke-width:1.000000;" /><polygon points="562.208631,140.122325 564.215157,144.702047 559.245739,144.149889" style="fill:#800080;stroke:#800080;stroke-width:1.000000;" />
<line x1="560" y1="190" x2="563.288" y2="170.272" style="fill:#800080;stroke:#800080;stroke-width:1.000000;" /><polygon points="563.287980,170.272122 565.042096,174.954330 560.110126,174.132335" style="fill:#800080;stroke:#800080;stroke-width:1.000000;" />
<line x1="560" y1="220" x2="566.325" y2="201.026" style="fill:#800080;stroke:#800080;stroke-width:1.000000;" /><polygon points="566.324555,201.026334 567.326957,205.924823 562.583541,204.343684" style="fill:#800080;stroke:#800080;stroke-width:1.000000;" />
<line x1="560" y1="250" x2="580" y2="250" style="fill:#800080;stroke:#800080;stroke-width:1.000000;" /><polygon points="580.000000,250.000000 575.669873,252.500000 575.669873,247.500000" style="fill:#800080;stroke:#800080;stroke-width:1.000000;" />
<line x1="560" y1="280" x2="566.325" y2="298.974" style="fill:#800080;stroke:#800080;stroke-width:1.000000;" /><polygon points="566.324555,298.973666 562.583541,295.656316 567.326957,294.075177" style="fill:#800080;stroke:#800080;stroke-width:1.000000;" />
<line x1="560" y1="310" x2="563.288" y2="329.728" style="fill:#800080;stroke:#800080;stroke-width:1.000000;" /><polygon points="563.287980,329.727878 560.110126,325.867665 565.042096,325.045670" style="fill:#800080;stroke:#800080;stroke-width:1.000000;" />
<line x1="560" y1="340" x2="562.209" y2="359.878" style="fill:#800080;stroke:#800080;stroke-width:1.000000;" /><polygon points="562.208631,359.877675 559.245739,355.850111 564.215157,355.297953" style="fill:#800080;stroke:#800080;stroke-width:1.000000;" />
<line x1="560" y1="370" x2="561.661" y2="389.931" style="fill:#800080;stroke:#800080;stroke-width:1.000000;" /><polygon points="561.660910,389.930915 558.809948,385.823359 563.792677,385.408132" style="fill:#800080;stroke:#800080;stroke-width:1.000000;" />
<line x1="590" y1="100" x2="595.153" y2="80.6753" style="fill:#800080;stroke:#800080;stroke-width:1.000000;" /><polygon points="595.153253,80.675301 596.453128,85.503378 591.621954,84.215065" style="fill:#800080;stroke:#800080;stroke-width:1.000000;" />
<line x1="590" y1="130" x2="596.325" y2="111.026" style="fill:#800080;stroke:#800080;stroke-width:1.000000;" /><polygon points="596.324555,111.026334 597.326957,115.924823 592.583541,114.343684" style="fill:#800080;stroke:#800080;stroke-width:1.000000;" />
<line x1="590" y1="160" x2="598.123" y2="141.724" style="fill:#800080;stroke:#800080;stroke-width:1.000000;" /><polygon points="598.122769,141.723769 598.648667,146.696035 594.079609,144.665343" style="fill:#800080;stroke:#800080;stroke-width:1.000000;" />
<line x1="590" y1="190" x2="601.094" y2="173.359" style="fill:#800080;stroke:#800080;stroke-width:1.000000;" /><polygon points="601.094004,173.358994 600.772207,178.348628 596.611956,175.575127" style="fill:#800080;stroke:#800080;stroke-width:1.000000;" />
<line x1="590" y1="220" x2="606" y2="208" style="fill:#800080;stroke:#800080;stroke-width:1.000000;" /><polygon points="606.000000,208.000000 604.035898,212.598076 601.035898,208.598076" style="fill:#800080;stroke:#800080;stroke-width:1.000000;" />
<line x1="590" y1="250" x2="610" y2="250" style="fill:#800080;stroke:#800080;stroke-width:1.000000;" /><polygon points="610.000000,250.000000 605.669873,252.500000 605.669873,247.500000" style="fill:#800080;stroke:#800080;stroke-width:1.000000;" />
<line x1="590" y1="280" x2="606" y2="292" style="fill:#800080;stroke:#800080;stroke-width:1.000000;" /><polygon points="606.000000,292.000000 601.035898,291.401924 604.035898,287.401924" style="fill:#800080;stroke:#800080;stroke-width:1.000000;" />
<line x1="590" y1="310" x2="601.094" y2="326.641" style="fill:#800080;stroke:#800080;stroke-width:1.000000;" /><polygon points="601.094004,326.641006 596.611956,324.424873 600.772207,321.651372" style="fill:#800080;stroke:#800080;stroke-width:1.000000;" />
<line x1="590" y1="340" x2="598.123" y2="358.276" style="fill:#800080;stroke:#800080;stroke-width:1.000000;" /><polygon points="598.122769,358.276231 594.079609,355.334657 598.648667,353.303965" style="fill:#800080;stroke:#800080;stroke-width:1.000000;" />
<line x1="590" y1="370" x2="596.325" y2="388.974" style="fill:#800080;stroke:#800080;stroke-width:1.000000;" /><polygon points="596.324555,388.973666 592.583541,385.656316 597.326957,384.075177" style="fill:#800080;stroke:#800080;stroke-width:1.000000;" />
<line x1="620" y1="100" x2="628.458" y2="81.8763" style="fill:#800080;stroke:#800080;stroke-width:1.000000;" /><polygon points="628.457709,81.876337 628.892019,86.857439 624.361104,84.743012" style="fill:#800080;stroke:#800080;stroke-width:1.000000;" />
<line x1="620" y1="130" x2="630.077" y2="112.724" style="fill:#800080;stroke:#800080;stroke-width:1.000000;" /><polygon points="630.077421,112.724422 630.055042,117.724372 625.736148,115.205017" style="fill:#800080;stroke:#800080;stroke-width:1.000000;" />
<line x1="620" y1="160" x2="632.279" y2="144.213" style="fill:#800080;stroke:#800080;stroke-width:1.000000;" /><polygon points="632.278812,144.212956 631.593752,149.165803 627.646991,146.096099" style="fill:#800080;stroke:#800080;stroke-width:1.000000;" />
<line x1="620" y1="190" x2="635.185" y2="176.984" style="fill:#800080;stroke:#800080;stroke-width:1.000000;" /><polygon points="635.185132,176.984173 633.524433,181.700323 630.270476,177.904040" style="fill:#800080;stroke:#800080;stroke-width:1.000000;" />
<line x1="620" y1="220" x2="638.383" y2="212.122" style="fill:#800080;stroke:#800080;stroke-width:1.000000;" /><polygon points="638.382901,212.121614 635.387684,216.125197 633.418088,211.529472" style="fill:#800080;stroke:#800080;stroke-width:1.000000;" />
<line x1="620" y1="250" x2="640" y2="250" style="fill:#800080;stroke:#800080;stroke-width:1.000000;" /><polygon points="640.000000,250.000000 635.669873,252.500000 635.669873,247.500000" style="fill:#800080;stroke:#800080;stroke-width:1.000000;" />
<line x1="620" y1="280" x2="638.383" y2="287.878" style="fill:#800080;stroke:#800080;stroke-width:1.000000;" /><polygon points="638.382901,287.878386 633.418088,288.470528 635.387684,283.874803" style="fill:#800080;stroke:#800080;stroke-width:1.000000;" />
<line x1="620" y1="310" x2="635.185" y2="323.016" style="fill:#800080;stroke:#800080;stroke-width:1.000000;" /><polygon points="635.185132,323.015827 630.270476,322.095960 633.524433,318.299677" style="fill:#800080;stroke:#800080;stroke-width:1.000000;" />
<line x1="620" y1="340" x2="632.279" y2="355.787" style="fill:#800080;stroke:#800080;stroke-width:1.000000;" /><polygon points="632.278812,355.787044 627.646991,353.903901 631.593752,350.834197" style="fill:#800080;stroke:#800080;stroke-width:1.000000;" />
<line x1="620" y1="370" x2="630.077" y2="387.276" style="fill:#800080;stroke:#800080;stroke-width:1.000000;" /><polygon points="630.077421,387.275578 625.736148,384.794983 630.055042,382.275628" style="fill:#800080;stroke:#800080;stroke-width:1.000000;" />
<line x1="50" y1="500" x2="750" y2="500" style="fill:#000000;stroke:#000000;stroke-width:1.000000;" /><polygon points="750.000000,500.000000 743.071797,504.000000 743.071797,496.000000" style="fill:#000000;stroke:#000000;stroke-width:1.000000;" />
<line x1="50" y1="500" x2="50" y2="50" style="fill:#000000;stroke:#000000;stroke-width:1.000000;" /><polygon points="50.000000,50.000000 54.000000,56.928203 46.000000,56.928203" style="fill:#000000;stroke:#000000;stroke-width:1.000000;" />
<text x="760" y="505" font-family="Times New Roman" font-size="16" style="fill:#000000;stroke:#ffffff;stroke-width:0.100000;">X</text>
<text x="45" y="40" font-family="Times New Roman" font-size="16" style="fill:#000000;stroke:#ffffff;stroke-width:0.100000;">Y</text>
</svg>
