<?xml version="1.0" encoding="UTF-8"?>
<svg width="800" height="600" xmlns="http://www.w3.org/2000/svg">
<rect width="100%" height="100%" fill="lightblue"/>
<rect x="50" y="50" width="200" height="100" style="fill:#ff0000;stroke:#000000;stroke-width:2.000000;" />
<circle cx="400" cy="300" r="80" style="fill:#000000;stroke:#0000ff;stroke-width:3.000000;" />
<line x1="100" y1="400" x2="700" y2="400" style="fill:#000000;stroke:#0000ff;stroke-width:3.000000;" />
<polyline points="600.000000,100.000000 650.000000,150.000000 700.000000,120.000000 750.000000,180.000000 780.000000,140.000000" style="fill:#000000;stroke:#0000ff;stroke-width:3.000000;" />
<polygon points="200.000000,300.000000 250.000000,400.000000 150.000000,400.000000" style="fill:rgba(0,255,0,0.501961);stroke:#006400;stroke-width:1.000000;fill-opacity:0.500000;" />
<text x="300" y="500" font-family="Verdana" font-size="24" style="fill:#000000;stroke:#ffffff;stroke-width:0.500000;">Hello SVG World!</text>
<polyline points="0.000000,200.000000 10.000000,209.933467 20.000000,219.470917 30.000000,228.232124 40.000000,235.867805 50.000000,242.073549 60.000000,246.601954 70.000000,249.272486 80.000000,249.978680 90.000000,248.692382 100.000000,245.464871 110.000000,240.424820 120.000000,233.773159 130.000000,225.775069 140.000000,216.749408 150.000000,207.056000 160.000000,197.081293 170.000000,187.222945 180.000000,177.873978 190.000000,169.407105 200.000000,162.159875 210.000000,156.421211 220.000000,152.419896 230.000000,150.315450 240.000000,150.191770 250.000000,152.053786 260.000000,155.827267 270.000000,161.361776 280.000000,168.436668 290.000000,176.769891 300.000000,186.029225 310.000000,195.845530 320.000000,205.827460 330.000000,215.577068 340.000000,224.705668 350.000000,232.849330 360.000000,239.683393 370.000000,244.935405 380.000000,248.395984 390.000000,249.927167 400.000000,249.467912 410.000000,247.036528 420.000000,242.729945 430.000000,236.719855 440.000000,229.245860 450.000000,220.605924 460.000000,211.144496 470.000000,201.238771 480.000000,191.283661 490.000000,181.676044 500.000000,172.798944 510.000000,165.006266 520.000000,158.608677 530.000000,153.861229 540.000000,150.953188 550.000000,150.000490 560.000000,151.041114 570.000000,154.033574 580.000000,158.858570 590.000000,165.323746 600.000000,173.171354 610.000000,182.088536 620.000000,191.719791 630.000000,201.681152 640.000000,211.575491 650.000000,221.008352 660.000000,229.603676 670.000000,237.018794 680.000000,242.958091 690.000000,247.184783 700.000000,249.530368 710.000000,249.901333 720.000000,248.282889 730.000000,244.739559 740.000000,239.412603 750.000000,232.514392 760.000000,224.319934 770.000000,215.155918 780.000000,205.387683 790.000000,195.404657" style="fill:#000000;stroke:#ff0000;stroke-width:2.000000;" />
</svg>
